<?xml version="1.0" encoding="utf-8"?>
<!-- Svg Vector Icons : http://www.onlinewebfonts.com/icon -->
<!DOCTYPE svg PUBLIC "-//W3C//DTD SVG 1.1//EN" "http://www.w3.org/Graphics/SVG/1.1/DTD/svg11.dtd">
<svg version="1.1" xmlns="http://www.w3.org/2000/svg" xmlns:xlink="http://www.w3.org/1999/xlink" x="0px" y="0px" viewBox="0 0 1000 1000" enable-background="new 0 0 1000 1000" xml:space="preserve">
<metadata> Svg Vector Icons : http://www.onlinewebfonts.com/icon </metadata>
<g><path d="M503,535.8c3.4-8.2,10.4-12.9,19.9-15c-67.6-99.6-158.3-217.1-221.6-336.1C274.6,134.5,253.8,56,194.3,47.8c-44.8-6.2-85.1,31.8-82.2,67.2c1.4,16.6,27.8,42.7,42.3,59.8c80.3,94.4,162.9,175.9,246.5,263.9C434.6,474.2,466,510.2,503,535.8z"/><path d="M478.1,570.7c-0.7-9.8,1-17.3,7.5-19.9C422.1,483,352.8,416,283.9,341.6C218.2,270.7,154,192.4,89.7,127.5c-3.4-3.4-19.4-7.3-29.9-5c-32,7-49.4,67.1-49.8,114.6C9.1,348.7,68.7,428.3,134.5,488.5c47.7,43.7,104.3,81.4,169.3,114.5c21,10.7,50.2,28.5,64.7,27.4c16.7-1.2,39.5-21.1,54.8-29.9C440.9,590.4,456.2,579.8,478.1,570.7z"/><path d="M672.4,441.2c17.1,9.5,39.2,27.2,67.2,17.4c3.6-5.3-9.3-9.3-12.5-22.4c-13.2-55,44.3-71.5,52.3-17.4c16.7-82.4-35.8-178.9-124.5-161.9c-14,2.7-31.2,15.8-32.4,27.4c-1.6,15.5,21.2,40.9,29.9,59.8C666.2,374.1,673.9,398.2,672.4,441.2z"/><path d="M627.5,491c-62-20.5-4.4-131.4,27.4-57.3c14.2-92.3-80.5-211.9-169.3-149.4c-16.5,11.6-34.7,40.5-29.9,79.7C464.7,437.1,541.9,517.5,627.5,491z"/><path d="M737.1,403.9c-3,14.9,7.8,19.8,17.4,14.9c2.9-2.9,2.8-8.8,2.5-14.9C752.1,398.9,742.8,402.3,737.1,403.9z"/><path d="M612.6,428.8c0,6.6-0.9,14.2,2.5,17.4c4.1,0,8.3,0,12.5,0C638.2,436.6,627.2,419.6,612.6,428.8z"/><path d="M527.9,538.3c-12.9,4.5-23,11.9-32.4,19.9c3.5,4,12.3,2.6,14.9,7.4c-16.2,22.2-47.5,29.4-74.7,44.8c-25.1,14.2-49.1,36.6-74.7,44.8c-33.5,10.8-79.4-0.2-92.1,39.8c21.4,1.5,22.6-17.2,42.3-17.4c2.9,22.2-37.5,22-32.4,54.8c20.1-3.2,20.4-26.1,42.3-27.4c3.2,16.9-24.2,23.6-24.9,44.8c29.7,4,27.9-23.6,49.8-27.4c16,1.4,5.9,28.9,17.4,34.9c21.1-22.1-10.4-46,0-69.7c19.5-44.8,110-68.5,159.4-84.7c-2,12.1-14.3,13.9-19.9,22.4c13.9,41.4,92.3,30.1,104.6-5C565,609.2,533.2,587,527.9,538.3z"/><path d="M620.1,630.5c32.2,14.2,86.2,39.6,74.7,89.6c-3.5,15.2-17.1,13.4-19.9,32.4c20.3,2.1,23.2-10.3,37.4-7.5c21.4,4.2,20,39.9,44.8,42.3c7.4-19.5-15.3-29.1-14.9-49.8c15-7.6,13.5,20.7,32.4,17.4c11-20.7-13.6-25.7-17.4-39.8c14-9.3,21,19.1,34.9,10c-0.1-26.5-38.5-14.6-62.2-17.4c-19.5-27-38.3-54.7-59.8-79.7C652.2,632.2,624.9,615.1,620.1,630.5z"/><path d="M488.1,630.5c-15.5,4.4-27.4,12.5-42.3,17.4c5.1,5.7,20.7,0.9,29.9,2.5C479.4,643.3,486.6,639.8,488.1,630.5z"/><path d="M458.2,727.6c13.4,33.5,70.1,47,92.1,12.5c-6.9-17.7-10.6-47.2-5-69.7c-23.2,0.8-35.4-9.4-44.8-22.4C479.8,667.8,472.1,700.8,458.2,727.6z"/><path d="M453.2,750c-56.4,81.4,90.1,124.9,122,57.3c-4.4-17.2-8.6-34.5-17.4-47.3c-10-3.8-16.2,14.1-32.4,17.4C493.5,784,467.4,763.9,453.2,750z"/><path d="M440.8,824.7c-22,81.9,74,166.6,129.5,109.6c19.8-20.4,22.1-68.4,12.5-107.1C556.2,863.4,460.8,875.6,440.8,824.7z"/><path d="M855.5,565.7c-48.2-25.6-82.7-64.8-150.8-47.3c-8.7-25.5,34.9-25,57.3-19.9c1.2-11.2-1.3-18.6-2.5-27.4c-29.4,11.2-73.2,9.2-87.1-14.9C658.7,504,587.6,533,537.9,501c-2.7,61.5,40.2,109.4,107.1,112c42.2,1.6,86.3-15.8,102.1-52.3c-14.2-4.9-41.5,3.3-47.3-10c22.8-8.3,66.8-4.5,103.5,7.5c26.6,8.6,41.4,27.2,44.8,59.7c49.8,45.6,101,89.9,141.9,144.4c-19.3-40.5-48.7-78.7-84.7-112.1C880.7,627.5,853.5,615.2,855.5,565.7z"/><path d="M684.8,202c15.8-5.3,52.8-29.5,79.7-9.9C755,153.3,688.7,170.9,684.8,202z"/><path d="M448.3,231.9c11.4-21.1,50.9-37.6,74.7-17.4C525.3,175.7,438.1,184.8,448.3,231.9z"/><path d="M589,275c-14.3-20.1-32.9-31-39.8-52.3c10.6,0.4,26.5,28.9,24.9,17.4c-14.5-44.2-28.7-125,19.9-141.9c-29.2,55.5-17.7,142.7,19.9,179.3l4.7,19.1L589,275z"/></g>
</svg>